<svg xmlns="http://www.w3.org/2000/svg" viewBox="0 0 32 32" width="32" height="32">
  <defs>
    <linearGradient id="goldGradient" x1="0%" y1="0%" x2="100%" y2="100%">
      <stop offset="0%" style="stop-color:#E6C547;stop-opacity:1" />
      <stop offset="100%" style="stop-color:#D4AF37;stop-opacity:1" />
    </linearGradient>
  </defs>
  
  <!-- Background circle -->
  <circle cx="16" cy="16" r="15" fill="#1A365D" stroke="#D4AF37" stroke-width="1"/>
  
  <!-- Piano keys -->
  <g transform="translate(6, 18)">
    <!-- White keys -->
    <rect x="0" y="0" width="3" height="8" fill="#F9F6EE" stroke="#D4AF37" stroke-width="0.3"/>
    <rect x="3" y="0" width="3" height="8" fill="#F9F6EE" stroke="#D4AF37" stroke-width="0.3"/>
    <rect x="6" y="0" width="3" height="8" fill="#F9F6EE" stroke="#D4AF37" stroke-width="0.3"/>
    <rect x="9" y="0" width="3" height="8" fill="#F9F6EE" stroke="#D4AF37" stroke-width="0.3"/>
    <rect x="12" y="0" width="3" height="8" fill="#F9F6EE" stroke="#D4AF37" stroke-width="0.3"/>
    <rect x="15" y="0" width="3" height="8" fill="#F9F6EE" stroke="#D4AF37" stroke-width="0.3"/>
    <rect x="18" y="0" width="2" height="8" fill="#F9F6EE" stroke="#D4AF37" stroke-width="0.3"/>
    
    <!-- Black keys -->
    <rect x="2" y="0" width="2" height="5" fill="#1A365D"/>
    <rect x="5" y="0" width="2" height="5" fill="#1A365D"/>
    <rect x="10" y="0" width="2" height="5" fill="#1A365D"/>
    <rect x="13" y="0" width="2" height="5" fill="#1A365D"/>
    <rect x="16" y="0" width="2" height="5" fill="#1A365D"/>
  </g>
  
  <!-- Musical notes -->
  <g fill="url(#goldGradient)">
    <!-- Treble clef -->
    <path d="M10 6 C8 6, 7 8, 8 10 C9 12, 11 11, 11 9 C11 7, 9 6, 8 7 C7 8, 8 9, 9 9 C10 9, 10 8, 9 8" stroke="#D4AF37" stroke-width="0.5" fill="none"/>
    
    <!-- Musical note -->
    <circle cx="22" cy="8" r="1.5" fill="#D4AF37"/>
    <rect x="23.3" y="4" width="0.4" height="6" fill="#D4AF37"/>
    
    <!-- Small musical note -->
    <circle cx="24" cy="12" r="1" fill="#D4AF37"/>
    <rect x="24.8" y="9" width="0.3" height="4" fill="#D4AF37"/>
  </g>
</svg>
